<svg width="24.000000" height="24.000000" viewBox="0 0 24 24" fill="none" xmlns="http://www.w3.org/2000/svg" xmlns:xlink="http://www.w3.org/1999/xlink">
	<desc>
			Created with Pixso.
	</desc>
	<defs>
		<clipPath id="clip5_2916">
			<rect id="insta" width="24.000000" height="24.000000" fill="white" fill-opacity="0"/>
		</clipPath>
	</defs>
	<g clip-path="url(#clip5_2916)">
		<path id="Vector" d="M12 7C10.6739 7 9.40216 7.52686 8.46448 8.46436C7.52679 9.40234 7 10.6738 7 12C7 13.3262 7.52679 14.5977 8.46448 15.5356C9.40216 16.4731 10.6739 17 12 17C13.3261 17 14.5978 16.4731 15.5355 15.5356C16.4732 14.5977 17 13.3262 17 12C17 10.6738 16.4732 9.40234 15.5355 8.46436C14.5978 7.52686 13.3261 7 12 7ZM12 15.2471C11.1385 15.2471 10.3123 14.9048 9.70312 14.2959C9.09396 13.6865 8.75174 12.8604 8.75174 11.999C8.75174 11.1372 9.09396 10.311 9.70312 9.70215C10.3123 9.09277 11.1385 8.75049 12 8.75049C12.8615 8.75049 13.6877 9.09277 14.2969 9.70215C14.906 10.311 15.2483 11.1372 15.2483 11.999C15.2483 12.8604 14.906 13.6865 14.2969 14.2959C13.6877 14.9048 12.8615 15.2471 12 15.2471Z" fill="#FFFFFF" fill-opacity="1.000000" fill-rule="nonzero"/>
		<path id="Vector" d="M18 7C18 7.55225 17.5523 8 17 8C16.4477 8 16 7.55225 16 7C16 6.44775 16.4477 6 17 6C17.5523 6 18 6.44775 18 7Z" fill="#FFFFFF" fill-opacity="1.000000" fill-rule="evenodd"/>
		<path id="Vector" d="M21.4702 5.44434C21.2131 4.78125 20.8202 4.1792 20.3167 3.67676C19.8131 3.17432 19.21 2.78223 18.546 2.52539C17.7689 2.23438 16.948 2.07666 16.1182 2.06006C15.0486 2.01318 14.7099 2 11.9978 2C9.28564 2 8.93802 2 7.87738 2.06006C7.04819 2.07617 6.22784 2.2334 5.45181 2.52539C4.78757 2.78174 4.18433 3.17383 3.68073 3.67627C3.17715 4.1792 2.78436 4.78125 2.52756 5.44434C2.23578 6.22021 2.07843 7.03955 2.06219 7.86816C2.01443 8.93506 2 9.27344 2 11.9824C2 14.6899 2 15.0352 2.06219 16.0962C2.07886 16.9258 2.23544 17.7441 2.52756 18.5215C2.78506 19.1841 3.17825 19.7861 3.68195 20.2886C4.18567 20.7915 4.78882 21.1836 5.45291 21.4399C6.22748 21.7432 7.04816 21.9116 7.87961 21.939C8.94913 21.9854 9.28787 22 12 22C14.7121 22 15.0598 22 16.1204 21.939C16.9501 21.9224 17.771 21.7651 18.5482 21.4746C19.2121 21.2173 19.815 20.8247 20.3185 20.3223C20.822 19.8193 21.215 19.2173 21.4724 18.5547C21.7646 17.7783 21.9211 16.96 21.9378 16.1309C21.9856 15.064 22 14.7256 22 12.0166C22 9.30762 22 8.96387 21.9378 7.90283C21.9249 7.0625 21.7667 6.23047 21.4702 5.44434ZM20.1175 16.0142C20.1104 16.6533 19.9935 17.2861 19.7721 17.8862C19.6053 18.3174 19.35 18.709 19.0225 19.0356C18.695 19.3623 18.3027 19.6172 17.8707 19.7832C17.2768 20.0034 16.6494 20.1201 16.016 20.1284C14.9609 20.1768 14.6633 20.189 11.9578 20.189C9.25012 20.189 8.97357 20.189 7.8985 20.1284C7.26535 20.1206 6.63831 20.0039 6.04486 19.7832C5.61139 19.6182 5.21747 19.3638 4.88858 19.0371C4.55972 18.71 4.30322 18.3179 4.13571 17.8862C3.91742 17.293 3.80066 16.667 3.79031 16.0352C3.74255 14.9819 3.73145 14.6846 3.73145 11.9834C3.73145 9.28076 3.73145 9.00488 3.79031 7.93018C3.79749 7.2915 3.91431 6.65869 4.13571 6.05957C4.47446 5.18457 5.16858 4.49609 6.04486 4.16113C6.63858 3.94189 7.26547 3.8252 7.8985 3.81641C8.95468 3.76855 9.25122 3.75537 11.9578 3.75537C14.6644 3.75537 14.942 3.75537 16.016 3.81641C16.6495 3.82422 17.2769 3.94043 17.8707 4.16113C18.3027 4.32764 18.6949 4.58301 19.0224 4.90967C19.3499 5.23682 19.6052 5.62842 19.7721 6.05957C19.9904 6.65283 20.1072 7.27832 20.1175 7.91064C20.1653 8.96484 20.1775 9.26123 20.1775 11.9634C20.1775 14.6646 20.1775 14.9551 20.1297 16.0151L20.1175 16.0151L20.1175 16.0142Z" fill="#FFFFFF" fill-opacity="1.000000" fill-rule="nonzero"/>
	</g>
</svg>
