<svg width="24.000000" height="24.000000" viewBox="0 0 24 24" fill="none" xmlns="http://www.w3.org/2000/svg" xmlns:xlink="http://www.w3.org/1999/xlink">
	<desc>
			Created with Pixso.
	</desc>
	<defs>
		<clipPath id="clip5_2910">
			<rect id="la:vk" width="24.000000" height="24.000000" fill="white" fill-opacity="0"/>
		</clipPath>
	</defs>
	<rect id="la:vk" width="24.000000" height="24.000000" fill="#FFFFFF" fill-opacity="0"/>
	<g clip-path="url(#clip5_2910)">
		<path id="Vector" d="M5.71091 2C4.72791 2.00391 3.78622 2.396 3.09113 3.09131C2.39603 3.78613 2.00385 4.72803 2 5.71094L2 18.2891C2.00385 19.272 2.39603 20.2139 3.09113 20.9087C3.78622 21.604 4.72791 21.9961 5.71091 22L18.2891 22C19.2721 21.9961 20.2138 21.604 20.9089 20.9087C21.604 20.2139 21.9962 19.272 22 18.2891L22 5.71094C21.9962 4.72803 21.604 3.78613 20.9089 3.09131C20.2138 2.396 19.2721 2.00391 18.2891 2L5.71091 2ZM5.71091 3.81836L18.2891 3.81836C19.3436 3.81836 20.1818 4.65625 20.1818 5.71094L20.1818 18.2891C20.1818 19.3438 19.3436 20.1816 18.2891 20.1816L5.71091 20.1816C5.46191 20.1836 5.21509 20.1357 4.98474 20.041C4.75439 19.9463 4.5451 19.8071 4.36905 19.6309C4.19299 19.4551 4.05362 19.2456 3.95905 19.0151C3.8645 18.7852 3.81662 18.5381 3.81818 18.2891L3.81818 5.71094C3.81818 4.65625 4.65637 3.81836 5.71091 3.81836Z" fill="#FFFFFF" fill-opacity="1.000000" fill-rule="nonzero"/>
		<path id="Vector" d="M17.7248 9.40625C17.8077 9.17236 17.7248 9 17.3273 9L16.0148 9C15.6808 9 15.5268 9.14893 15.4433 9.31299C15.4433 9.31299 14.7758 10.6826 13.8303 11.5723C13.5244 11.8301 13.3853 11.9121 13.2184 11.9121C13.1349 11.9121 13.0094 11.8301 13.0094 11.5957L13.0094 9.40625C13.0094 9.125 12.9174 9 12.6394 9L10.5754 9C10.3669 9 10.2414 9.13037 10.2414 9.25391C10.2414 9.52051 10.7144 9.58203 10.7629 10.3311L10.7629 11.959C10.7629 12.3159 10.6864 12.3804 10.5194 12.3804C10.0744 12.3804 8.99194 11.0044 8.34946 9.42969C8.22495 9.12354 8.09897 9 7.76346 9L6.44998 9C6.07501 9 6 9.14893 6 9.31299C6 9.60498 6.44498 11.0571 8.07245 12.9775C9.15744 14.2891 10.6849 15 12.0764 15C12.9109 15 13.0139 14.8423 13.0139 14.5703L13.0139 13.5791C13.0139 13.2632 13.0929 13.2002 13.3574 13.2002C13.5523 13.2002 13.8858 13.2822 14.6648 13.9146C15.5548 14.6641 15.7013 15 16.2023 15L17.5148 15C17.8897 15 18.0778 14.8423 17.9698 14.5303C17.8507 14.2202 17.4258 13.7695 16.8623 13.2354C16.5563 12.9307 16.0973 12.603 15.9578 12.439C15.7633 12.2285 15.8188 12.1348 15.9578 11.9473C15.9578 11.9473 17.5578 10.0503 17.7242 9.40625L17.7248 9.40625Z" fill="#FFFFFF" fill-opacity="1.000000" fill-rule="evenodd"/>
	</g>
</svg>
