<svg width="780.000000" height="399.000000" viewBox="0 0 780 399" fill="none" xmlns="http://www.w3.org/2000/svg" xmlns:xlink="http://www.w3.org/1999/xlink">
	<desc>
			Created with Pixso.
	</desc>
	<defs/>
	<path id="Ellipse 38" d="M462 82.5C462 121.43 430.43 153 391.5 153C352.56 153 321 121.43 321 82.5C321 43.56 352.56 12 391.5 12C430.43 12 462 43.56 462 82.5Z" fill="#1F1E1E" fill-opacity="1.000000" fill-rule="nonzero"/>
	<path id="Танцпол" d="M360.57 89L362.46 89L362.46 79.17L365.79 79.17L365.79 77.57L357.23 77.57L357.23 79.17L360.57 79.17L360.57 89ZM373.22 80.91Q372.38 80.18 370.74 80.18Q369.86 80.18 369.05 80.39Q368.25 80.6 367.61 80.94L368.21 82.24Q368.58 82.06 368.97 81.92Q369.18 81.84 369.39 81.78Q369.58 81.72 369.77 81.68Q370.2 81.59 370.65 81.59Q371.4 81.59 371.81 81.96Q371.82 81.97 371.83 81.97Q372.25 82.35 372.25 83.25L372.25 83.71L370.75 83.76Q368.73 83.83 367.73 84.5Q367.35 84.76 367.12 85.11Q366.74 85.68 366.74 86.51Q366.74 87.41 367.09 88Q367.28 88.31 367.55 88.54Q367.77 88.74 368.05 88.87Q368.66 89.15 369.43 89.15Q370.17 89.15 370.68 89Q371.19 88.85 371.58 88.54Q371.97 88.24 372.34 87.77L372.4 87.77L372.75 89L374.06 89L374.06 83.17Q374.06 81.77 373.35 81.04Q373.29 80.97 373.22 80.91ZM415.06 86.57Q415.34 85.73 415.34 84.65Q415.34 83.23 414.82 82.23Q414.46 81.53 413.9 81.06Q413.67 80.86 413.39 80.71Q413.35 80.68 413.31 80.66Q412.42 80.18 411.28 80.18Q410.01 80.18 409.09 80.71Q408.76 80.89 408.48 81.14Q407.99 81.59 407.67 82.23Q407.18 83.22 407.18 84.65Q407.18 85.73 407.47 86.57Q407.77 87.4 408.31 87.98Q408.54 88.22 408.81 88.42Q409.17 88.68 409.6 88.85Q410.34 89.15 411.23 89.15Q412.18 89.15 412.94 88.85Q413.46 88.65 413.87 88.31Q414.07 88.16 414.24 87.98Q414.78 87.4 415.06 86.57ZM378.47 83.82L378.47 80.35L376.63 80.35L376.63 89L378.47 89L378.47 85.26L382.52 85.26L382.52 89L384.36 89L384.36 80.35L382.52 80.35L382.52 83.82L378.47 83.82ZM394.21 92.04L395.92 92.04L395.92 87.58L394.68 87.58L394.68 80.35L392.84 80.35L392.84 87.55L388.83 87.55L388.83 80.35L386.99 80.35L386.99 89L394.21 89L394.21 92.04ZM405.06 89L405.06 80.35L397.5 80.35L397.5 89L399.35 89L399.35 81.8L403.21 81.8L403.21 89L405.06 89ZM422.71 89L424.57 89L424.57 80.35L418.74 80.35Q418.63 81.98 418.49 83.19Q418.35 84.41 418.18 85.26Q418 86.1 417.79 86.62Q417.58 87.14 417.34 87.37Q417.14 87.56 416.92 87.6Q416.86 87.61 416.8 87.61Q416.64 87.61 416.48 87.58Q416.32 87.55 416.19 87.5L416.19 88.95Q416.39 89.03 416.65 89.08Q416.91 89.12 417.23 89.12Q417.76 89.12 418.18 88.9Q418.33 88.82 418.47 88.71Q418.99 88.31 419.34 87.43Q419.69 86.55 419.93 85.15Q420.16 83.75 420.32 81.78L422.71 81.78L422.71 89ZM409.3 86.27Q409.07 85.6 409.07 84.65Q409.07 83.22 409.59 82.46Q409.73 82.25 409.92 82.1Q410.42 81.69 411.25 81.69Q412.03 81.69 412.51 82.04Q412.56 82.07 412.6 82.11Q413.02 82.45 413.22 83.05Q413.45 83.71 413.45 84.65Q413.45 85.6 413.22 86.27Q413.01 86.89 412.58 87.24Q412.55 87.27 412.51 87.3Q412.03 87.65 411.26 87.65Q410.5 87.65 410.01 87.3Q409.98 87.27 409.95 87.25Q409.51 86.9 409.3 86.27ZM371.12 84.9L372.24 84.86L372.24 85.61Q372.24 86.48 371.81 87Q371.72 87.11 371.61 87.21Q371.47 87.33 371.31 87.43Q370.76 87.75 370.03 87.75Q369.4 87.75 369.02 87.46Q368.95 87.41 368.9 87.35Q368.64 87.06 368.64 86.53Q368.64 86.11 368.81 85.79Q368.95 85.55 369.19 85.37Q369.75 84.95 371.12 84.9Z" fill="#FFFFFF" fill-opacity="1.000000" fill-rule="evenodd"/>
	<g opacity="0.001000">
		<rect id="Rectangle 264" x="15.000000" width="127.000000" height="93.000000" fill="#DEDEDE" fill-opacity="1.000000"/>
	</g>
	<path id="Rectangle 182" d="M109 65L15 65L15 93L142 93L142 0L110 0L110 65L109 65ZM111 1L111 66L16 66L16 92L141 92L141 1L111 1Z" fill="#1F1E1E" fill-opacity="1.000000" fill-rule="evenodd"/>
	<path id="10" d="M134.46 80.95Q134.73 79.59 134.73 77.88Q134.73 75.55 134.18 73.91Q133.64 72.26 132.5 71.39Q132.47 71.37 132.45 71.35Q131.32 70.51 129.57 70.51Q127.67 70.51 126.54 71.39Q126.48 71.44 126.42 71.48Q125.38 72.35 124.91 73.92Q124.42 75.56 124.42 77.88Q124.42 80.17 124.96 81.81Q125.49 83.41 126.59 84.28Q126.62 84.3 126.64 84.32Q126.67 84.34 126.7 84.36Q127.83 85.19 129.57 85.19Q131.01 85.19 132 84.69Q132.44 84.47 132.8 84.16Q133.25 83.77 133.58 83.25Q134.18 82.3 134.46 80.95ZM117.28 85L121.19 85L121.19 70.72L117.72 70.72L112.82 74.71L114.82 77.17L116.44 75.83Q116.64 75.65 116.86 75.43Q117.08 75.22 117.34 74.92Q117.31 75.42 117.29 76.06Q117.28 76.69 117.28 77.22L117.28 85ZM128.36 80.22Q128.25 79.27 128.25 77.88Q128.25 76.46 128.36 75.51Q128.46 74.57 128.75 74.08Q128.91 73.82 129.14 73.7Q129.33 73.6 129.57 73.6Q129.82 73.6 130.01 73.7Q130.24 73.82 130.39 74.08Q130.68 74.57 130.78 75.51Q130.89 76.46 130.89 77.88Q130.89 79.28 130.78 80.22Q130.68 81.17 130.39 81.64Q130.24 81.89 130.02 82.01Q129.83 82.11 129.57 82.11Q129.32 82.11 129.13 82.01Q128.9 81.89 128.75 81.64Q128.46 81.17 128.36 80.22Z" fill="#1F1E1E" fill-opacity="1.000000" fill-rule="evenodd"/>
	<circle id="Ellipse 95" cx="27.000000" cy="50.000000" r="11.500000" stroke="#1F1E1E" stroke-opacity="1.000000" stroke-width="1.000000"/>
	<circle id="Ellipse 96" cx="61.000000" cy="50.000000" r="11.500000" stroke="#1F1E1E" stroke-opacity="1.000000" stroke-width="1.000000"/>
	<circle id="Ellipse 97" cx="94.000000" cy="50.000000" r="11.500000" stroke="#1F1E1E" stroke-opacity="1.000000" stroke-width="1.000000"/>
	<circle id="Ellipse 98" cx="94.000000" cy="16.000000" r="11.500000" stroke="#1F1E1E" stroke-opacity="1.000000" stroke-width="1.000000"/>
	<g opacity="0.001000">
		<rect id="Rectangle 262" x="685.000000" y="4.000000" width="95.000000" height="121.000000" fill="#DEDEDE" fill-opacity="1.000000"/>
	</g>
	<rect id="Frame 2007" width="95.000000" height="121.000000" transform="translate(685.000000 4.000000)" fill="#FFFFFF" fill-opacity="0"/>
	<rect id="Rectangle 196" x="712.500000" y="4.500000" width="40.000000" height="93.000000" stroke="#1F1E1E" stroke-opacity="1.000000" stroke-width="1.000000"/>
	<path id="2" d="M727.59 60L737.95 60L737.95 56.81L732.55 56.81L732.55 56.71L733.6 55.78Q734.95 54.55 735.86 53.57Q736.77 52.6 737.22 51.63Q737.68 50.66 737.68 49.42Q737.68 48.67 737.42 48.02Q737.29 47.7 737.09 47.41Q737.02 47.3 736.93 47.19Q736.37 46.46 735.44 46.02Q734.37 45.51 732.91 45.51Q731.5 45.51 730.51 45.84Q729.52 46.18 728.8 46.7Q728.08 47.22 727.43 47.8L729.55 50.28Q730.42 49.53 731.11 49.14Q731.8 48.75 732.47 48.75Q732.92 48.75 733.27 48.94Q733.36 48.98 733.44 49.04Q733.54 49.1 733.61 49.19Q733.85 49.47 733.85 49.96Q733.85 50.13 733.82 50.29Q733.77 50.63 733.61 50.95Q733.36 51.43 732.76 52.11Q732.16 52.8 731.08 53.93L727.59 57.46L727.59 60Z" fill="#1F1E1E" fill-opacity="1.000000" fill-rule="evenodd"/>
	<circle id="Ellipse 60" cx="697.000000" cy="16.000000" r="11.500000" stroke="#1F1E1E" stroke-opacity="1.000000" stroke-width="1.000000"/>
	<circle id="Ellipse 63" cx="768.000000" cy="17.000000" r="11.500000" stroke="#1F1E1E" stroke-opacity="1.000000" stroke-width="1.000000"/>
	<circle id="Ellipse 61" cx="697.000000" cy="49.000000" r="11.500000" stroke="#1F1E1E" stroke-opacity="1.000000" stroke-width="1.000000"/>
	<circle id="Ellipse 64" cx="768.000000" cy="50.000000" r="11.500000" stroke="#1F1E1E" stroke-opacity="1.000000" stroke-width="1.000000"/>
	<circle id="Ellipse 62" cx="697.000000" cy="82.000000" r="11.500000" stroke="#1F1E1E" stroke-opacity="1.000000" stroke-width="1.000000"/>
	<circle id="Ellipse 65" cx="768.000000" cy="83.000000" r="11.500000" stroke="#1F1E1E" stroke-opacity="1.000000" stroke-width="1.000000"/>
	<circle id="Ellipse 66" cx="733.000000" cy="113.000000" r="11.500000" stroke="#1F1E1E" stroke-opacity="1.000000" stroke-width="1.000000"/>
	<g opacity="0.001000">
		<rect id="Rectangle 263" x="685.000000" y="185.000000" width="95.000000" height="121.000000" fill="#DEDEDE" fill-opacity="1.000000"/>
	</g>
	<rect id="Frame 2006" width="95.000000" height="121.000000" transform="translate(685.000000 185.000000)" fill="#FFFFFF" fill-opacity="0"/>
	<rect id="Rectangle 195" x="712.500000" y="185.500000" width="40.000000" height="93.000000" stroke="#1F1E1E" stroke-opacity="1.000000" stroke-width="1.000000"/>
	<path id="3" d="M737.04 231.57Q737.47 230.83 737.47 229.81Q737.47 229.04 737.16 228.43Q736.84 227.83 736.21 227.39Q734.94 226.51 732.74 226.51Q730.88 226.51 729.73 226.93Q728.59 227.35 727.7 227.96L729.3 230.54Q729.52 230.4 729.93 230.18Q730.35 229.97 730.92 229.79Q731.49 229.62 732.13 229.62Q732.85 229.62 733.29 229.89Q733.47 230 733.58 230.16Q733.73 230.39 733.73 230.73Q733.73 230.95 733.66 231.14Q733.59 231.34 733.45 231.51Q733.17 231.85 732.53 232.04Q731.89 232.24 730.79 232.24L729.9 232.24L729.9 235.14L730.77 235.14Q732.01 235.14 732.66 235.32Q733.32 235.51 733.57 235.85Q733.6 235.89 733.62 235.93Q733.81 236.25 733.81 236.68Q733.81 237.05 733.66 237.33Q733.53 237.57 733.3 237.75Q732.79 238.15 731.38 238.15Q730.57 238.15 729.59 237.92Q728.61 237.69 727.68 237.22L727.68 240.42Q727.77 240.45 727.86 240.49Q728.69 240.8 729.57 240.99Q730.55 241.19 731.94 241.19Q734.01 241.19 735.33 240.61Q736.64 240.03 737.27 239.06Q737.55 238.61 737.71 238.13Q737.89 237.55 737.89 236.91Q737.89 235.74 737.33 234.98Q737.17 234.76 736.96 234.57Q736.03 233.75 734.32 233.53L734.32 233.48Q734.99 233.29 735.58 232.96Q735.74 232.87 735.89 232.77Q736.25 232.53 736.54 232.23Q736.83 231.93 737.04 231.57Z" fill="#1F1E1E" fill-opacity="1.000000" fill-rule="evenodd"/>
	<circle id="Ellipse 67" cx="697.000000" cy="197.000000" r="11.500000" stroke="#1F1E1E" stroke-opacity="1.000000" stroke-width="1.000000"/>
	<circle id="Ellipse 68" cx="768.000000" cy="198.000000" r="11.500000" stroke="#1F1E1E" stroke-opacity="1.000000" stroke-width="1.000000"/>
	<circle id="Ellipse 69" cx="697.000000" cy="230.000000" r="11.500000" stroke="#1F1E1E" stroke-opacity="1.000000" stroke-width="1.000000"/>
	<circle id="Ellipse 70" cx="768.000000" cy="231.000000" r="11.500000" stroke="#1F1E1E" stroke-opacity="1.000000" stroke-width="1.000000"/>
	<circle id="Ellipse 71" cx="697.000000" cy="263.000000" r="11.500000" stroke="#1F1E1E" stroke-opacity="1.000000" stroke-width="1.000000"/>
	<circle id="Ellipse 72" cx="768.000000" cy="264.000000" r="11.500000" stroke="#1F1E1E" stroke-opacity="1.000000" stroke-width="1.000000"/>
	<circle id="Ellipse 73" cx="733.000000" cy="294.000000" r="11.500000" stroke="#1F1E1E" stroke-opacity="1.000000" stroke-width="1.000000"/>
	<g opacity="0.001000">
		<rect id="Rectangle 261" x="467.000000" y="278.000000" width="95.000000" height="121.000000" fill="#DEDEDE" fill-opacity="1.000000"/>
	</g>
	<rect id="Rectangle 190" x="494.500000" y="278.500000" width="40.000000" height="93.000000" stroke="#1F1E1E" stroke-opacity="1.000000" stroke-width="1.000000"/>
	<g opacity="0.900000">
		<path id="5" d="M517.18 322.95Q516.39 322.64 515.48 322.64Q514.77 322.64 514.44 322.7Q514.11 322.76 513.8 322.82L513.98 320.93L518.84 320.93L518.84 317.72L510.69 317.72L510.16 325.26L511.57 325.96Q511.96 325.83 512.48 325.73Q512.54 325.71 512.61 325.7Q513.06 325.62 513.54 325.62Q514.73 325.62 515.31 326.08Q515.54 326.26 515.68 326.5Q515.9 326.87 515.9 327.36Q515.9 327.94 515.64 328.34Q515.6 328.41 515.55 328.47Q515.3 328.78 514.88 328.95Q514.39 329.15 513.67 329.15Q512.78 329.15 511.72 328.88Q510.67 328.6 509.91 328.26L509.91 331.42Q510.71 331.81 511.73 332Q512.76 332.19 514 332.19Q515.95 332.19 517.23 331.62Q518.18 331.2 518.78 330.48Q518.99 330.23 519.16 329.94Q519.8 328.83 519.8 327.24Q519.8 325.76 519.21 324.74Q518.8 324.03 518.21 323.55Q517.95 323.34 517.65 323.18Q517.42 323.05 517.18 322.95Z" fill="#1F1E1E" fill-opacity="1.000000" fill-rule="evenodd"/>
	</g>
	<circle id="Ellipse 74" cx="479.000000" cy="290.000000" r="11.500000" stroke="#1F1E1E" stroke-opacity="1.000000" stroke-width="1.000000"/>
	<circle id="Ellipse 75" cx="550.000000" cy="291.000000" r="11.500000" stroke="#1F1E1E" stroke-opacity="1.000000" stroke-width="1.000000"/>
	<circle id="Ellipse 76" cx="479.000000" cy="323.000000" r="11.500000" stroke="#1F1E1E" stroke-opacity="1.000000" stroke-width="1.000000"/>
	<circle id="Ellipse 77" cx="550.000000" cy="324.000000" r="11.500000" stroke="#1F1E1E" stroke-opacity="1.000000" stroke-width="1.000000"/>
	<circle id="Ellipse 78" cx="479.000000" cy="356.000000" r="11.500000" stroke="#1F1E1E" stroke-opacity="1.000000" stroke-width="1.000000"/>
	<circle id="Ellipse 79" cx="550.000000" cy="357.000000" r="11.500000" stroke="#1F1E1E" stroke-opacity="1.000000" stroke-width="1.000000"/>
	<circle id="Ellipse 80" cx="515.000000" cy="387.000000" r="11.500000" stroke="#1F1E1E" stroke-opacity="1.000000" stroke-width="1.000000"/>
	<rect id="Frame 2002" width="95.000000" height="121.000000" transform="translate(246.000000 278.000000)" fill="#FFFFFF" fill-opacity="0"/>
	<g opacity="0.001000">
		<rect id="Rectangle 258" x="246.000000" y="278.000000" width="95.000000" height="121.000000" fill="#DEDEDE" fill-opacity="1.000000"/>
	</g>
	<rect id="Rectangle 184" x="273.500000" y="278.500000" width="40.000000" height="93.000000" stroke="#1F1E1E" stroke-opacity="1.000000" stroke-width="1.000000"/>
	<circle id="Ellipse 81" cx="258.000000" cy="290.000000" r="11.500000" stroke="#1F1E1E" stroke-opacity="1.000000" stroke-width="1.000000"/>
	<circle id="Ellipse 82" cx="329.000000" cy="291.000000" r="11.500000" stroke="#1F1E1E" stroke-opacity="1.000000" stroke-width="1.000000"/>
	<circle id="Ellipse 83" cx="258.000000" cy="323.000000" r="11.500000" stroke="#1F1E1E" stroke-opacity="1.000000" stroke-width="1.000000"/>
	<circle id="Ellipse 84" cx="329.000000" cy="324.000000" r="11.500000" stroke="#1F1E1E" stroke-opacity="1.000000" stroke-width="1.000000"/>
	<circle id="Ellipse 85" cx="258.000000" cy="356.000000" r="11.500000" stroke="#1F1E1E" stroke-opacity="1.000000" stroke-width="1.000000"/>
	<circle id="Ellipse 86" cx="329.000000" cy="357.000000" r="11.500000" stroke="#1F1E1E" stroke-opacity="1.000000" stroke-width="1.000000"/>
	<circle id="Ellipse 87" cx="294.000000" cy="387.000000" r="11.500000" stroke="#1F1E1E" stroke-opacity="1.000000" stroke-width="1.000000"/>
	<path id="6" d="M288.74 325.54Q288.68 326.25 288.68 326.96Q288.68 328.56 289.08 329.74Q289.49 330.92 290.22 331.68Q290.61 332.09 291.07 332.39Q291.47 332.65 291.93 332.82Q292.91 333.19 294.06 333.19Q295.62 333.19 296.75 332.59Q297.28 332.31 297.7 331.91Q298.16 331.46 298.49 330.85Q299.1 329.71 299.1 328.11Q299.1 326.63 298.62 325.59Q298.27 324.83 297.69 324.33Q297.48 324.16 297.24 324.02Q296.35 323.47 295.1 323.47Q294.33 323.47 293.8 323.69Q293.26 323.91 292.89 324.29Q292.79 324.4 292.69 324.52Q292.45 324.8 292.27 325.13L292.16 325.13Q292.21 324 292.59 323.19Q292.72 322.89 292.93 322.64Q293.27 322.22 293.79 321.95Q294.63 321.51 296.07 321.51Q296.79 321.51 297.29 321.56Q297.79 321.62 298.19 321.7L298.19 318.68Q297.79 318.61 297.18 318.56Q296.58 318.51 296.16 318.51Q294.26 318.51 292.95 318.99Q291.63 319.47 290.79 320.31Q290.31 320.78 289.96 321.33Q289.69 321.75 289.49 322.22Q289.03 323.3 288.85 324.51Q288.78 325.03 288.74 325.54ZM294.55 330.01Q294.29 330.13 293.97 330.13Q293.65 330.13 293.4 329.99Q293.36 329.97 293.32 329.94Q293.28 329.92 293.24 329.89Q293.02 329.71 292.86 329.45Q292.68 329.14 292.6 328.76Q292.52 328.38 292.52 328Q292.52 327.86 292.54 327.73Q292.58 327.49 292.69 327.26Q292.76 327.12 292.85 327.01Q293 326.82 293.2 326.68Q293.22 326.67 293.24 326.66Q293.56 326.45 294.01 326.45Q294.55 326.45 294.87 326.72Q294.96 326.8 295.04 326.92Q295.36 327.38 295.36 328.19Q295.36 329.2 294.97 329.67Q294.79 329.89 294.55 330.01Z" fill="#1F1E1E" fill-opacity="1.000000" fill-rule="evenodd"/>
	<rect id="Frame 1999" width="95.000000" height="121.000000" transform="translate(0.000000 185.000000)" fill="#FFFFFF" fill-opacity="0"/>
	<g opacity="0.001000">
		<rect id="Rectangle 256" y="185.000000" width="95.000000" height="121.000000" fill="#DEDEDE" fill-opacity="1.000000"/>
	</g>
	<rect id="Rectangle 194" x="27.500000" y="185.500000" width="40.000000" height="93.000000" stroke="#1F1E1E" stroke-opacity="1.000000" stroke-width="1.000000"/>
	<circle id="Ellipse 88" cx="12.000000" cy="197.000000" r="11.500000" stroke="#1F1E1E" stroke-opacity="1.000000" stroke-width="1.000000"/>
	<circle id="Ellipse 89" cx="83.000000" cy="198.000000" r="11.500000" stroke="#1F1E1E" stroke-opacity="1.000000" stroke-width="1.000000"/>
	<circle id="Ellipse 90" cx="12.000000" cy="230.000000" r="11.500000" stroke="#1F1E1E" stroke-opacity="1.000000" stroke-width="1.000000"/>
	<circle id="Ellipse 91" cx="83.000000" cy="231.000000" r="11.500000" stroke="#1F1E1E" stroke-opacity="1.000000" stroke-width="1.000000"/>
	<circle id="Ellipse 92" cx="12.000000" cy="263.000000" r="11.500000" stroke="#1F1E1E" stroke-opacity="1.000000" stroke-width="1.000000"/>
	<circle id="Ellipse 93" cx="83.000000" cy="264.000000" r="11.500000" stroke="#1F1E1E" stroke-opacity="1.000000" stroke-width="1.000000"/>
	<circle id="Ellipse 94" cx="48.000000" cy="294.000000" r="11.500000" stroke="#1F1E1E" stroke-opacity="1.000000" stroke-width="1.000000"/>
	<path id="11" d="M41.28 241L45.19 241L45.19 226.72L41.72 226.72L36.82 230.71L38.82 233.17L40.44 231.84Q40.64 231.65 40.86 231.43Q41.08 231.22 41.34 230.92Q41.31 231.43 41.29 232.06Q41.28 232.69 41.28 233.22L41.28 241ZM53 241L56.91 241L56.91 226.72L53.44 226.72L48.53 230.71L50.54 233.17L52.16 231.84Q52.36 231.65 52.58 231.43Q52.8 231.22 53.06 230.92Q53.03 231.43 53.01 232.06Q53 232.69 53 233.22L53 241Z" fill="#1F1E1E" fill-opacity="1.000000" fill-rule="evenodd"/>
	<rect id="Frame 1996" width="90.000000" height="91.000000" transform="translate(194.000000 0.000000)" fill="#FFFFFF" fill-opacity="0"/>
	<g opacity="0.001000">
		<rect id="Rectangle 255" x="194.000000" width="90.000000" height="91.000000" fill="#DEDEDE" fill-opacity="1.000000"/>
	</g>
	<rect id="Rectangle 181" x="222.500000" y="27.500000" width="61.000000" height="36.000000" stroke="#BC3324" stroke-opacity="1.000000" stroke-width="1.000000"/>
	<path id="9" d="M255.76 47.79Q256.03 46.51 256.03 44.98Q256.03 43.29 255.62 42.07Q255.2 40.85 254.47 40.06Q253.99 39.55 253.42 39.21Q253.11 39.03 252.76 38.89Q252.72 38.88 252.68 38.86Q251.74 38.51 250.68 38.51Q249.11 38.51 247.97 39.12Q247.38 39.43 246.94 39.88Q246.52 40.3 246.22 40.85Q245.61 41.98 245.61 43.57Q245.61 45.07 246.1 46.11Q246.49 46.94 247.13 47.45Q247.29 47.58 247.47 47.69Q247.51 47.72 247.55 47.74Q248.41 48.24 249.56 48.24Q250.37 48.24 250.91 48.02Q251.46 47.81 251.82 47.43Q251.83 47.43 251.83 47.42Q252.19 47.05 252.44 46.58L252.55 46.58Q252.5 47.64 252.13 48.46Q252.04 48.67 251.92 48.85Q251.55 49.39 250.89 49.73Q250.01 50.19 248.39 50.19Q247.84 50.19 247.42 50.15Q247 50.1 246.58 50.04L246.58 53.09Q246.98 53.15 247.56 53.17Q248.14 53.19 248.58 53.19Q250.17 53.19 251.39 52.83Q252.61 52.47 253.49 51.77Q253.8 51.52 254.07 51.24Q254.57 50.72 254.93 50.07Q255.49 49.07 255.76 47.79ZM250.01 41.8Q250.33 41.6 250.78 41.6Q251.09 41.6 251.33 41.73Q251.38 41.76 251.42 41.78Q251.46 41.81 251.49 41.84Q251.71 42.01 251.86 42.28Q252.03 42.58 252.11 42.96Q252.17 43.24 252.19 43.51Q252.19 43.62 252.19 43.72Q252.19 43.82 252.18 43.92Q252.14 44.19 252.01 44.46Q251.91 44.64 251.77 44.79Q251.65 44.93 251.49 45.04Q251.4 45.11 251.29 45.16Q251.04 45.27 250.74 45.27Q250.27 45.27 249.95 45.05Q249.81 44.95 249.7 44.8Q249.35 44.33 249.35 43.53Q249.35 42.52 249.73 42.06Q249.85 41.91 250.01 41.8Z" fill="#BC3324" fill-opacity="1.000000" fill-rule="evenodd"/>
	<circle id="Ellipse 50" r="11.500000" transform="matrix(-1 0 0 -1 251 79)" stroke="#BC3324" stroke-opacity="1.000000" stroke-width="1.000000"/>
	<circle id="Ellipse 51" r="11.500000" transform="matrix(-1 0 0 -1 206 43)" stroke="#BC3324" stroke-opacity="1.000000" stroke-width="1.000000"/>
	<circle id="Ellipse 52" r="11.500000" transform="matrix(-1 0 0 -1 251 12)" stroke="#BC3324" stroke-opacity="1.000000" stroke-width="1.000000"/>
	<rect id="Frame 2000" width="90.000000" height="91.000000" transform="translate(159.000000 142.000000)" fill="#FFFFFF" fill-opacity="0"/>
	<g opacity="0.001000">
		<rect id="Rectangle 257" x="159.000000" y="142.000000" width="90.000000" height="91.000000" fill="#DEDEDE" fill-opacity="1.000000"/>
	</g>
	<rect id="Rectangle 193" x="187.500000" y="169.500000" width="61.000000" height="36.000000" stroke="#BC3324" stroke-opacity="1.000000" stroke-width="1.000000"/>
	<path id="8" d="M218.38 180.89Q217.31 180.51 215.89 180.51Q214.49 180.51 213.4 180.9Q212.33 181.28 211.72 182.03Q211.7 182.04 211.69 182.06Q211.6 182.18 211.51 182.32Q211.08 183.01 211.08 183.98Q211.08 184.81 211.37 185.46Q211.54 185.83 211.77 186.15Q211.95 186.4 212.16 186.63Q212.3 186.77 212.45 186.9Q212.83 187.25 213.26 187.53Q212.51 187.92 211.92 188.39Q211.65 188.61 211.43 188.88Q211.18 189.19 211 189.56Q210.66 190.24 210.66 191.24Q210.66 192.27 211.08 193.08Q211.14 193.19 211.2 193.3Q211.22 193.34 211.25 193.38Q211.79 194.22 212.9 194.69Q214.05 195.19 215.85 195.19Q217.66 195.19 218.81 194.67Q219.94 194.16 220.49 193.29Q220.51 193.27 220.52 193.24Q220.66 193.01 220.77 192.77Q221.08 192.05 221.08 191.2Q221.08 190.3 220.69 189.64Q220.67 189.6 220.64 189.56Q220.5 189.35 220.35 189.15Q220 188.72 219.54 188.36Q218.87 187.86 218.2 187.48Q218.92 187.12 219.47 186.64Q219.8 186.35 220.05 186.01Q220.21 185.77 220.34 185.51Q220.66 184.86 220.66 184Q220.66 182.96 220.18 182.23Q220.12 182.14 220.05 182.05Q220.01 182 219.97 181.94Q219.37 181.25 218.38 180.89ZM215.31 183.41Q215.56 183.3 215.87 183.3Q216.16 183.3 216.41 183.4Q216.56 183.47 216.69 183.57Q216.83 183.69 216.91 183.83Q217.04 184.05 217.04 184.33Q217.04 184.67 216.89 184.92Q216.87 184.96 216.85 184.99Q216.78 185.09 216.7 185.18Q216.57 185.33 216.39 185.45Q216.12 185.65 215.84 185.82Q215.51 185.63 215.25 185.41Q215 185.18 214.84 184.91Q214.78 184.79 214.74 184.66Q214.69 184.5 214.69 184.33Q214.69 184.05 214.81 183.84Q214.9 183.69 215.04 183.57Q215.17 183.48 215.31 183.41ZM214.33 191.68Q214.19 191.42 214.19 191.08Q214.19 190.81 214.28 190.58Q214.33 190.43 214.42 190.3Q214.64 189.96 215.01 189.68Q215.38 189.4 215.82 189.18L216.08 189.33Q216.33 189.48 216.68 189.74Q216.76 189.81 216.84 189.88Q217.08 190.1 217.28 190.36Q217.41 190.54 217.47 190.74Q217.53 190.94 217.53 191.16Q217.53 191.52 217.37 191.79Q217.28 191.95 217.12 192.08Q216.7 192.42 215.82 192.42Q215.05 192.42 214.62 192.05Q214.44 191.89 214.33 191.68Z" fill="#BC3324" fill-opacity="1.000000" fill-rule="evenodd"/>
	<circle id="Ellipse 57" r="11.500000" transform="matrix(-1 0 0 -1 216 221)" stroke="#BC3324" stroke-opacity="1.000000" stroke-width="1.000000"/>
	<circle id="Ellipse 58" r="11.500000" transform="matrix(-1 0 0 -1 171 185)" stroke="#BC3324" stroke-opacity="1.000000" stroke-width="1.000000"/>
	<circle id="Ellipse 59" r="11.500000" transform="matrix(-1 0 0 -1 216 154)" stroke="#BC3324" stroke-opacity="1.000000" stroke-width="1.000000"/>
	<g opacity="0.001000">
		<rect id="Rectangle 259" x="507.000000" y="8.000000" width="111.000000" height="83.000000" fill="#DEDEDE" fill-opacity="1.000000"/>
	</g>
	<rect id="Frame 2003" width="111.000000" height="83.000000" transform="translate(507.000000 8.000000)" fill="#FFFFFF" fill-opacity="0"/>
	<rect id="Rectangle 178" x="507.500000" y="35.500000" width="83.000000" height="28.000000" stroke="#BC3324" stroke-opacity="1.000000" stroke-width="1.000000"/>
	<path id="1" d="M548.28 56L552.19 56L552.19 41.72L548.72 41.72L543.82 45.71L545.82 48.17L547.44 46.83Q547.64 46.65 547.86 46.43Q548.08 46.22 548.34 45.92Q548.31 46.42 548.29 47.06Q548.28 47.69 548.28 48.22L548.28 56Z" fill="#BC3324" fill-opacity="1.000000" fill-rule="evenodd"/>
	<circle id="Ellipse 40" cx="527.000000" cy="20.000000" r="11.500000" stroke="#BC3324" stroke-opacity="1.000000" stroke-width="1.000000"/>
	<circle id="Ellipse 41" cx="570.000000" cy="20.000000" r="11.500000" stroke="#BC3324" stroke-opacity="1.000000" stroke-width="1.000000"/>
	<circle id="Ellipse 42" cx="606.000000" cy="48.000000" r="11.500000" stroke="#BC3324" stroke-opacity="1.000000" stroke-width="1.000000"/>
	<circle id="Ellipse 43" cx="570.000000" cy="79.000000" r="11.500000" stroke="#BC3324" stroke-opacity="1.000000" stroke-width="1.000000"/>
	<circle id="Ellipse 44" cx="527.000000" cy="79.000000" r="11.500000" stroke="#BC3324" stroke-opacity="1.000000" stroke-width="1.000000"/>
	<g opacity="0.001000">
		<rect id="Rectangle 260" x="507.000000" y="155.000000" width="111.000000" height="83.000000" fill="#DEDEDE" fill-opacity="1.000000"/>
	</g>
	<rect id="Frame 2004" width="111.000000" height="83.000000" transform="translate(507.000000 155.000000)" fill="#FFFFFF" fill-opacity="0"/>
	<rect id="Rectangle 188" x="507.500000" y="182.500000" width="83.000000" height="28.000000" stroke="#BC3324" stroke-opacity="1.000000" stroke-width="1.000000"/>
	<path id="4" d="M552.84 199.23L554.41 199.23L554.41 196.35L552.84 196.35L552.84 187.72L549.27 187.72L543.34 196.4L543.34 199.23L549.03 199.23L549.03 202L552.84 202L552.84 199.23ZM549.03 194.69L549.03 196.35L546.68 196.35L548.26 194Q548.51 193.61 548.67 193.32Q548.83 193.03 549.01 192.59L549.12 192.59Q549.11 192.61 549.09 192.85Q549.08 193.09 549.06 193.44Q549.05 193.78 549.04 194.12Q549.03 194.47 549.03 194.69Z" fill="#BC3324" fill-opacity="1.000000" fill-rule="evenodd"/>
	<circle id="Ellipse 45" cx="527.000000" cy="167.000000" r="11.500000" stroke="#BC3324" stroke-opacity="1.000000" stroke-width="1.000000"/>
	<circle id="Ellipse 46" cx="570.000000" cy="167.000000" r="11.500000" stroke="#BC3324" stroke-opacity="1.000000" stroke-width="1.000000"/>
	<circle id="Ellipse 47" cx="606.000000" cy="195.000000" r="11.500000" stroke="#BC3324" stroke-opacity="1.000000" stroke-width="1.000000"/>
	<circle id="Ellipse 48" cx="570.000000" cy="226.000000" r="11.500000" stroke="#BC3324" stroke-opacity="1.000000" stroke-width="1.000000"/>
	<circle id="Ellipse 49" cx="527.000000" cy="226.000000" r="11.500000" stroke="#BC3324" stroke-opacity="1.000000" stroke-width="1.000000"/>
	<rect id="Frame 2001" width="138.000000" height="56.000000" transform="translate(293.000000 183.000000)" fill="#FFFFFF" fill-opacity="0"/>
	<g opacity="0.001000">
		<rect id="Rectangle 253" x="293.000000" y="183.000000" width="138.000000" height="56.000000" fill="#DEDEDE" fill-opacity="1.000000"/>
	</g>
	<rect id="Rectangle 183" x="320.500000" y="183.500000" width="83.000000" height="28.000000" stroke="#BC3324" stroke-opacity="1.000000" stroke-width="1.000000"/>
	<path id="7" d="M362.94 192.91L358.04 204L362.03 204L367.06 191.99L367.06 189.72L356.76 189.72L356.76 192.91L362.94 192.91Z" fill="#BC3324" fill-opacity="1.000000" fill-rule="evenodd"/>
	<circle id="Ellipse 53" cx="383.000000" cy="227.000000" r="11.500000" stroke="#BC3324" stroke-opacity="1.000000" stroke-width="1.000000"/>
	<circle id="Ellipse 55" cx="419.000000" cy="197.000000" r="11.500000" stroke="#BC3324" stroke-opacity="1.000000" stroke-width="1.000000"/>
	<circle id="Ellipse 56" cx="305.000000" cy="197.000000" r="11.500000" stroke="#BC3324" stroke-opacity="1.000000" stroke-width="1.000000"/>
	<circle id="Ellipse 54" cx="340.000000" cy="227.000000" r="11.500000" stroke="#BC3324" stroke-opacity="1.000000" stroke-width="1.000000"/>
</svg>
