<svg width="56.000000" height="17.000000" viewBox="0 0 56 17" fill="none" xmlns="http://www.w3.org/2000/svg" xmlns:xlink="http://www.w3.org/1999/xlink">
	<path id="tagree" d="M5.46411 12.6948L3.27051 12.6948Q2.78003 12.6948 2.3313 12.5576L2.3313 12.5576L2.32947 12.5571L2.32947 12.5571Q2.15881 12.5049 1.99414 12.4331C1.59534 12.2588 1.24963 12.0239 0.957153 11.729C0.664673 11.4204 0.432129 11.0649 0.259277 10.6626Q0.19397 10.5107 0.145142 10.354L0.145142 10.3535L0.145142 10.3535L0.145142 10.3535L0.144653 10.3521L0.144653 10.3521L0.144531 10.3521Q0 9.88574 0 9.375L0 0.603516L2.39307 0L2.39307 3.84277L3.78894 3.84277L4.38721 6.25684L2.39307 6.25684L2.39307 9.375C2.39307 9.62988 2.47949 9.84473 2.65222 10.019Q2.79309 10.1611 2.96326 10.2261Q3.10645 10.2803 3.27051 10.2803L4.86584 10.2803L5.46411 12.6948ZM27.2897 13.1313Q27.2002 13.4419 27.0706 13.7407C26.8047 14.3848 26.4324 14.9478 25.9537 15.4307C25.4752 15.9136 24.9167 16.2959 24.2787 16.5776C23.6405 16.8594 22.9558 17 22.2246 17C21.6263 17 21.0614 16.9062 20.5295 16.7183C19.9978 16.5308 19.5059 16.2622 19.0538 15.9136L20.7888 14.1836C21.2142 14.4517 21.6929 14.5859 22.2246 14.5859C23.0356 14.5859 23.7136 14.2974 24.2587 13.7207C24.8171 13.1572 25.0963 12.48 25.0963 11.689L25.0963 7.64502C25.0963 6.86719 24.8171 6.18311 24.2587 5.59277Q23.8479 5.17871 23.3508 4.96729L23.3508 4.96729Q22.8344 4.74805 22.2246 4.74805C21.4535 4.74805 20.7755 5.02979 20.1906 5.59277C19.6322 6.18311 19.353 6.86719 19.353 7.64502C19.353 8.44971 19.6322 9.13379 20.1906 9.69727C20.7755 10.2603 21.4535 10.542 22.2246 10.542C22.6235 10.542 22.9824 10.4751 23.3015 10.3408L24.1989 12.5942Q24.1639 12.6084 24.1287 12.6216L24.1284 12.6221Q23.261 12.9561 22.2645 12.9561L22.2246 12.9561C21.5067 12.9561 20.8287 12.8223 20.1906 12.5537C19.5524 12.272 18.994 11.8901 18.5154 11.4072C18.0369 10.9243 17.658 10.3608 17.3788 9.71729Q17.2943 9.52246 17.2268 9.32178L17.2268 9.32178Q16.96 8.52832 16.96 7.64502C16.96 6.90723 17.0796 6.2168 17.319 5.57275Q17.6692 4.63037 18.2852 3.91846L18.2852 3.91797Q18.288 3.91504 18.2908 3.91162Q18.3033 3.89697 18.316 3.88281C18.7548 3.3999 19.2732 3.02441 19.8715 2.75635C20.483 2.47461 21.1478 2.3335 21.8657 2.3335C22.557 2.3335 23.1686 2.44092 23.7003 2.65576C24.2322 2.85693 24.6974 3.11182 25.0963 3.41992L25.0963 2.63574L27.4893 2.63574L27.4893 11.689Q27.4893 12.4385 27.2898 13.1309L27.2897 13.1313ZM32.34 2.63574C31.8748 2.83691 31.4559 3.09131 31.0836 3.3999L31.0836 2.61523L28.6907 2.61523L28.6907 12.6948L31.0836 12.6948L31.0836 7.64502Q31.0836 7.15381 31.2321 6.71289L31.2321 6.7124Q31.4362 6.10547 31.9213 5.59277C32.4796 5.02979 33.1576 4.74805 33.9553 4.74805L33.9553 2.3335C33.3571 2.3335 32.8186 2.43408 32.34 2.63574ZM15.863 12.6948L15.863 2.61523L13.47 2.61523L13.47 3.41992C13.0845 3.11182 12.639 2.85693 12.1339 2.65576C11.6287 2.45459 11.0504 2.354 10.3989 2.354Q9.45801 2.354 8.63452 2.66455L8.63452 2.66455L8.63428 2.66504L8.63428 2.66504Q8.49792 2.71631 8.36487 2.77637C7.7533 3.04443 7.22156 3.41992 6.76953 3.90283C6.3175 4.38574 5.96521 4.94922 5.71252 5.59277Q5.69531 5.63672 5.67896 5.68115L5.67834 5.68262Q5.33374 6.60986 5.33374 7.66504Q5.33374 8.56592 5.59412 9.38379L5.59424 9.38379L5.59424 9.38379L5.59436 9.38428Q5.64795 9.55225 5.71252 9.71729C5.96521 10.3608 6.3175 10.9243 6.76953 11.4072C7.22156 11.8901 7.7533 12.272 8.36487 12.5537Q8.42676 12.5806 8.48938 12.6055Q9.37451 12.9561 10.3989 12.9561C11.21 12.9561 11.9211 12.8018 12.5327 12.4937L11.6752 10.3408C11.3561 10.4751 10.9972 10.542 10.5984 10.542C10.2128 10.542 9.84058 10.4751 9.48157 10.3408C9.13599 10.1934 8.8302 9.97852 8.56433 9.69727Q8.14209 9.271 7.93274 8.7583Q7.72668 8.25391 7.72668 7.66504Q7.72668 7.03125 7.95752 6.49756Q8.16638 6.01416 8.56433 5.61279C8.8302 5.34473 9.13599 5.13672 9.48157 4.98926C9.84058 4.8418 10.2128 4.76807 10.5984 4.76807Q11.2081 4.76807 11.7246 4.9873Q12.2217 5.19873 12.6324 5.61279Q13.0303 6.01416 13.2391 6.49756L13.2391 6.49756Q13.47 7.03125 13.47 7.66504L13.47 12.6948L15.863 12.6948ZM36.7888 8.87207C36.9218 9.18066 37.1145 9.45557 37.3671 9.69727C37.6462 9.97852 37.9587 10.1934 38.3043 10.3408C38.65 10.4751 39.0156 10.542 39.4011 10.542Q40.074 10.542 40.6252 10.2832Q40.7439 10.2275 40.8569 10.1597L43.3496 11.1655C42.8711 11.729 42.2927 12.1714 41.6147 12.4937C40.9366 12.8018 40.1989 12.9561 39.4011 12.9561C38.6699 12.9561 37.9854 12.8223 37.3472 12.5537C36.709 12.272 36.1506 11.8901 35.672 11.4072C35.1934 10.9243 34.8146 10.3608 34.5353 9.71729C34.2694 9.07324 34.1365 8.38916 34.1365 7.66504C34.1365 6.92725 34.2694 6.23682 34.5353 5.59277C34.8146 4.94922 35.1934 4.38574 35.672 3.90283C36.1506 3.41992 36.709 3.04443 37.3472 2.77637C37.9854 2.49463 38.6699 2.354 39.4011 2.354C40.1323 2.354 40.817 2.49463 41.4552 2.77637Q42.0474 3.02539 42.548 3.39746L42.5481 3.39746Q42.8566 3.62695 43.1302 3.90283C43.6089 4.38574 43.9812 4.94922 44.2471 5.59277C44.5262 6.23682 44.6658 6.92725 44.6658 7.66504C44.6658 8.09424 44.6193 8.49658 44.5262 8.87207L36.7888 8.87207ZM48.7013 9.69727C48.4486 9.45557 48.2559 9.18066 48.1229 8.87207L55.8604 8.87207C55.9535 8.49658 56 8.09424 56 7.66504C56 6.92725 55.8604 6.23682 55.5812 5.59277Q55.3175 4.9541 54.9141 4.42139Q54.7076 4.14844 54.4645 3.90283C53.9858 3.41992 53.4275 3.04443 52.7893 2.77637Q52.5724 2.68066 52.3484 2.60645Q51.5836 2.354 50.7354 2.354Q49.8871 2.354 49.1223 2.60645Q48.8982 2.68066 48.6813 2.77637C48.0432 3.04443 47.4849 3.41992 47.0062 3.90283C46.5276 4.38574 46.1487 4.94922 45.8695 5.59277Q45.8181 5.71729 45.7733 5.84424Q45.4707 6.70117 45.4707 7.66504Q45.4707 8.48535 45.6981 9.2373Q45.7719 9.48096 45.8695 9.71729C46.1487 10.3608 46.5276 10.9243 47.0062 11.4072C47.4849 11.8901 48.0432 12.272 48.6813 12.5537C49.3195 12.8223 50.0042 12.9561 50.7354 12.9561C51.533 12.9561 52.2709 12.8018 52.9489 12.4937C53.627 12.1714 54.2052 11.729 54.6838 11.1655L52.191 10.1597C51.7656 10.4146 51.2804 10.542 50.7354 10.542C50.3499 10.542 49.9843 10.4751 49.6385 10.3408C49.2928 10.1934 48.9805 9.97852 48.7013 9.69727ZM39.4011 4.76807C38.6301 4.76807 37.952 5.0498 37.3671 5.61279C37.1145 5.86768 36.9218 6.14941 36.7888 6.45801L42.0135 6.45801C41.8806 6.14941 41.6879 5.86768 41.4353 5.61279C40.8768 5.0498 40.1989 4.76807 39.4011 4.76807ZM49.8385 4.90869Q50.2637 4.76807 50.7354 4.76807C51.533 4.76807 52.2111 5.0498 52.7694 5.61279C53.022 5.86768 53.2147 6.14941 53.3478 6.45801L48.1229 6.45801C48.2559 6.14941 48.4486 5.86768 48.7013 5.61279Q49.2209 5.11279 49.8385 4.90869Z" fill="currentColor" fill-opacity="1.000000" fill-rule="evenodd"/>
</svg>
